<?xml version="1.0" encoding="UTF-8"?>
<svg width="46px" height="46px" viewBox="0 0 46 46" version="1.1" xmlns="http://www.w3.org/2000/svg" xmlns:xlink="http://www.w3.org/1999/xlink">
    <!-- Generator: Sketch 42 (36781) - http://www.bohemiancoding.com/sketch -->
    <title>Group</title>
    <desc>Created with Sketch.</desc>
    <defs></defs>
    <g id="Page-1" stroke="none" stroke-width="1" fill="none" fill-rule="evenodd">
        <g id="Home-Page-7-" transform="translate(-592.000000, -1085.000000)" fill-rule="nonzero">
            <g id="Footer" transform="translate(3.000000, 986.000000)">
                <g id="Social-Media" transform="translate(413.135699, 50.000000)">
                    <g id="Instagram-color" transform="translate(176.262500, 49.000000)">
                        <g id="Group">
                            <g id="Page-1">
                                <g id="SOCIAL-ICONS-SKETCH">
                                    <g id="FULL-COLOR">
                                        <g id="Group">
                                            <path d="M45.5061173,22.7580519 C45.5061173,35.2843896 35.3943739,45.439039 22.9202293,45.439039 C10.4460847,45.439039 0.333746429,35.2843896 0.333746429,22.7580519 C0.333746429,10.2317143 10.4460847,0.0770649351 22.9202293,0.0770649351 C35.3943739,0.0770649351 45.5061173,10.2317143 45.5061173,22.7580519" id="Instagram-Circle" fill="#2A5B83"></path>
                                            <path d="M31.8016918,11.7479221 L15.1756464,11.7479221 C13.7436898,11.7479221 12.5830137,12.9104675 12.5830137,14.3454286 L12.5830137,31.052987 C12.5830137,32.4873506 13.7436898,33.6504935 15.1756464,33.6504935 L31.8016918,33.6504935 C33.2336484,33.6504935 34.3943245,32.4873506 34.3943245,31.052987 L34.3943245,14.3454286 C34.3943245,12.9104675 33.2336484,11.7479221 31.8016918,11.7479221 L31.8016918,11.7479221 Z M28.2601722,15.1698442 C28.2601722,14.7922857 28.5653628,14.4852208 28.9413481,14.4852208 L30.9860655,14.4852208 C31.3626457,14.4852208 31.6678363,14.7922857 31.6678363,15.1698442 L31.6678363,17.2231169 C31.6678363,17.6012727 31.3626457,17.9077403 30.9860655,17.9077403 L28.9413481,17.9077403 C28.5653628,17.9077403 28.2601722,17.6012727 28.2601722,17.2231169 L28.2601722,15.1698442 L28.2601722,15.1698442 Z M23.5139529,18.5224675 C25.8305458,18.5224675 27.7086874,20.4042857 27.7086874,22.7245974 C27.7086874,25.0455065 25.8305458,26.9267273 23.5139529,26.9267273 C21.197955,26.9267273 19.3198133,25.0455065 19.3198133,22.7245974 C19.3198133,20.4042857 21.197955,18.5224675 23.5139529,18.5224675 L23.5139529,18.5224675 Z M32.349607,30.9125974 C32.349607,31.2901558 32.0444165,31.5972208 31.6678363,31.5972208 L15.3095019,31.5972208 C14.9329218,31.5972208 14.6277312,31.2901558 14.6277312,30.9125974 L14.6277312,20.6456364 L17.3542194,20.6456364 C16.9990561,21.1588052 16.8788835,22.1164416 16.8788835,22.7245974 C16.8788835,26.3896623 19.8558303,29.3718961 23.5139529,29.3718961 C27.1726705,29.3718961 30.1496172,26.3896623 30.1496172,22.7245974 C30.1496172,22.1164416 30.0633548,21.1731429 29.6231188,20.6456364 L32.349607,20.6456364 L32.349607,30.9125974 L32.349607,30.9125974 Z" id="Instagram" fill="#FFFFFF"></path>
                                        </g>
                                    </g>
                                </g>
                            </g>
                        </g>
                    </g>
                </g>
            </g>
        </g>
    </g>
</svg>