<?xml version="1.0" encoding="UTF-8"?>
<svg width="47px" height="46px" viewBox="0 0 47 46" version="1.1" xmlns="http://www.w3.org/2000/svg" xmlns:xlink="http://www.w3.org/1999/xlink">
    <!-- Generator: Sketch 42 (36781) - http://www.bohemiancoding.com/sketch -->
    <title>Group-2</title>
    <desc>Created with Sketch.</desc>
    <defs></defs>
    <g id="Page-1" stroke="none" stroke-width="1" fill="none" fill-rule="evenodd">
        <g id="Home-Page-7-" transform="translate(-535.000000, -1085.000000)" fill-rule="nonzero">
            <g id="Footer" transform="translate(3.000000, 986.000000)">
                <g id="Social-Media" transform="translate(413.135699, 50.000000)">
                    <g id="Twitter-color" transform="translate(119.500000, 49.000000)">
                        <g id="Group-2">
                            <g id="Page-1">
                                <g id="SOCIAL-ICONS-SKETCH">
                                    <g id="FULL-COLOR">
                                        <g id="Group-2">
                                            <path d="M45.5067122,22.7580519 C45.5067122,35.2843896 35.3943739,45.439039 22.9202293,45.439039 C10.4460847,45.439039 0.333746429,35.2843896 0.333746429,22.7580519 C0.333746429,10.2317143 10.4460847,0.0770649351 22.9202293,0.0770649351 C35.3943739,0.0770649351 45.5067122,10.2317143 45.5067122,22.7580519" id="Twitter-Circle" fill="#24A9E6"></path>
                                            <path d="M33.1723723,13.6536364 C32.288331,14.1924935 31.3114831,14.5843896 30.2674101,14.7940779 C29.4357211,13.8800519 28.2470841,13.3089351 26.9311356,13.3089351 C24.4087027,13.3089351 22.3616056,15.4165714 22.3616056,18.0158701 C22.3616056,18.3844675 22.4008699,18.7429091 22.4793985,19.0876104 C18.6802814,18.8910649 15.3124765,17.0194026 13.0565648,14.168 C12.6627321,14.8657662 12.4378549,15.6752468 12.4378549,16.5367013 C12.4378549,18.1694026 13.2445575,19.6103377 14.4718639,20.4544675 C13.7234628,20.4317662 13.0173005,20.2178961 12.3997804,19.8672208 L12.3997804,19.9251688 C12.3997804,22.2066494 13.9757061,24.109974 16.0686115,24.5407013 C15.6854872,24.6512208 15.2809461,24.7061818 14.8639118,24.7061818 C14.5694297,24.7061818 14.2820865,24.6781039 14.003667,24.6231429 C14.5854923,26.4924156 16.2726668,27.8538961 18.2733606,27.8897403 C16.7093332,29.1532468 14.7371952,29.905974 12.5961018,29.905974 C12.2272555,29.905974 11.8625736,29.8844675 11.5056255,29.8414545 C13.5283312,31.1748571 15.9323763,31.9544675 18.5131107,31.9544675 C26.9222119,31.9544675 31.5191079,24.7832468 31.5191079,18.5624935 C31.5191079,18.3575844 31.5155384,18.1532727 31.5078045,17.9525455 C32.4007696,17.2882338 33.1765367,16.4602338 33.7869179,15.5163377 C32.968317,15.8903117 32.0866553,16.1436104 31.1621598,16.2571169 C32.1062874,15.6752468 32.830892,14.7522597 33.1723723,13.6536364" id="Twitter" fill="#FFFFFF"></path>
                                        </g>
                                    </g>
                                </g>
                            </g>
                        </g>
                    </g>
                </g>
            </g>
        </g>
    </g>
</svg>