<?xml version="1.0" encoding="UTF-8"?>
<svg width="46px" height="46px" viewBox="0 0 46 46" version="1.1" xmlns="http://www.w3.org/2000/svg" xmlns:xlink="http://www.w3.org/1999/xlink">
    <!-- Generator: Sketch 42 (36781) - http://www.bohemiancoding.com/sketch -->
    <title>FULL-COLOR</title>
    <desc>Created with Sketch.</desc>
    <defs></defs>
    <g id="Page-1" stroke="none" stroke-width="1" fill="none" fill-rule="evenodd">
        <g id="Home-Page-7-" transform="translate(-479.000000, -1085.000000)" fill-rule="nonzero" fill="#43619C">
            <g id="Footer" transform="translate(3.000000, 986.000000)">
                <g id="Social-Media" transform="translate(413.135699, 50.000000)">
                    <g id="Facebook-color" transform="translate(62.737500, 49.000000)">
                        <g id="Facebook">
                            <g id="Page-1">
                                <g id="SOCIAL-ICONS-SKETCH">
                                    <g id="FULL-COLOR">
                                        <path d="M22.9220141,0.0776623377 C10.4466797,0.0776623377 0.333151515,10.2335065 0.333151515,22.761039 C0.333151515,35.2825974 10.4466797,45.4384416 22.9220141,45.4384416 C35.3913994,45.4384416 45.5049275,35.2825974 45.5049275,22.761039 C45.5049275,10.2335065 35.3913994,0.0776623377 22.9220141,0.0776623377 L22.9220141,0.0776623377 Z M33.9100649,32.3493506 C33.9100649,33.0184416 33.5828626,33.4545455 32.9225087,33.4545455 L27.3660173,33.4545455 L27.3660173,25.0909091 L30.1918561,25.0909091 L30.6201937,21.5064935 L27.3660173,21.5064935 L27.3660173,19.6425974 C27.3660173,18.6867532 27.6218301,17.9220779 28.990131,17.9220779 L30.9354978,17.9220779 L30.9354978,15.0724675 C30.3405844,15.0306494 29.4184686,14.941039 28.2107944,14.941039 C25.7002597,14.941039 23.7965368,16.4823377 23.7965368,19.314026 L23.7965368,21.5064935 L20.8219697,21.5064935 L20.8219697,25.0909091 L23.7965368,25.0909091 L23.7965368,33.4545455 L13.4926364,33.4545455 C12.8263333,33.4545455 12.4931818,33.0184416 12.4931818,32.3493506 L12.4931818,12.8381818 C12.4931818,12.1690909 12.8263333,11.3506494 13.4926364,11.3506494 L32.9225087,11.3506494 C33.5828626,11.3506494 33.9100649,12.1690909 33.9100649,12.8381818 L33.9100649,32.3493506 L33.9100649,32.3493506 Z" id="Facebook"></path>
                                    </g>
                                </g>
                            </g>
                        </g>
                    </g>
                </g>
            </g>
        </g>
    </g>
</svg>