<?xml version="1.0" encoding="UTF-8"?>
<svg width="46px" height="46px" viewBox="0 0 46 46" version="1.1" xmlns="http://www.w3.org/2000/svg" xmlns:xlink="http://www.w3.org/1999/xlink">
    <!-- Generator: Sketch 42 (36781) - http://www.bohemiancoding.com/sketch -->
    <title>Group</title>
    <desc>Created with Sketch.</desc>
    <defs></defs>
    <g id="Page-1" stroke="none" stroke-width="1" fill="none" fill-rule="evenodd">
        <g id="Home-Page-7-" transform="translate(-416.000000, -1085.000000)" fill-rule="nonzero" fill="#D80027">
            <g id="Footer" transform="translate(3.000000, 986.000000)">
                <g id="Social-Media" transform="translate(413.135699, 50.000000)">
                    <g id="youtube-logotype" transform="translate(0.000000, 49.000000)">
                        <g id="Capa_1">
                            <g id="Group">
                                <polygon id="Shape" points="12.0017833 24.6344082 13.8130822 24.6344082 13.8130822 34.4788776 15.5266878 34.4788776 15.5266878 24.6344082 17.3716418 24.6344082 17.3716418 23.0220612 12.0017833 23.0220612"></polygon>
                                <path d="M26.4912396,25.8379184 C25.9247121,25.8379184 25.3960465,26.1486531 24.8991663,26.763551 L24.8991663,23.0215918 L23.358978,23.0215918 L23.358978,34.4788776 L24.8991663,34.4788776 L24.8991663,33.6518163 C25.4147438,34.2906531 25.9429419,34.5966939 26.4912396,34.5966939 C27.1040429,34.5966939 27.5163179,34.2728163 27.721988,33.6372653 C27.8252905,33.2753673 27.8781103,32.7069388 27.8781103,31.9169592 L27.8781103,28.5176531 C27.8781103,27.7093673 27.8252905,27.1451633 27.721988,26.8020408 C27.5167854,26.1617959 27.1035755,25.8379184 26.4912396,25.8379184 Z M26.3369871,32.0380612 C26.3369871,32.8097347 26.1116849,33.1899388 25.6666896,33.1899388 C25.4138089,33.1899388 25.1562539,33.0683673 24.8986989,32.8092653 L24.8986989,27.6065714 C25.1562539,27.3507551 25.4138089,27.2296531 25.6666896,27.2296531 C26.1112174,27.2296531 26.3369871,27.6248776 26.3369871,28.3946735 L26.3369871,32.0380612 Z" id="Shape"></path>
                                <path d="M20.4847388,32.4661429 C20.143046,32.9510204 19.8200505,33.1899388 19.5106105,33.1899388 C19.3049405,33.1899388 19.1876151,33.0683673 19.1502205,32.8280408 C19.1361975,32.7782857 19.1361975,32.5895918 19.1361975,32.2272245 L19.1361975,25.9421224 L17.5955418,25.9421224 L17.5955418,32.691449 C17.5955418,33.2946122 17.6474267,33.7020408 17.7315645,33.9611429 C17.8862844,34.3939184 18.2284446,34.5966939 18.7239225,34.5966939 C19.2909175,34.5966939 19.8724029,34.253102 20.4847388,33.5480816 L20.4847388,34.4793469 L22.0263294,34.4793469 L22.0263294,25.9421224 L20.4847388,25.9421224 L20.4847388,32.4661429 L20.4847388,32.4661429 Z" id="Shape"></path>
                                <path d="M21.8071038,18.0554694 C22.3086583,18.0554694 22.5493858,17.6560204 22.5493858,16.8580612 L22.5493858,13.2292245 C22.5493858,12.4307959 22.3086583,12.0332245 21.8071038,12.0332245 C21.3050819,12.0332245 21.063887,12.4312653 21.063887,13.2292245 L21.063887,16.8580612 C21.063887,17.6564898 21.3050819,18.0554694 21.8071038,18.0554694 Z" id="Shape"></path>
                                <path d="M22.8457377,0 C10.2283464,0 0,10.2711429 0,22.9413265 C0,35.6115102 10.2283464,45.8826531 22.8457377,45.8826531 C35.4631289,45.8826531 45.6914753,35.6115102 45.6914753,22.9413265 C45.6914753,10.2711429 35.4631289,0 22.8457377,0 Z M25.3866979,10.7302041 L26.9390395,10.7302041 L26.9390395,17.0819592 C26.9390395,17.448551 26.9390395,17.6386531 26.9577367,17.6898163 C26.9918593,17.9320204 27.1143264,18.0559388 27.3228011,18.0559388 C27.6341108,18.0559388 27.9608457,17.8137347 28.306278,17.3241633 L28.306278,10.7302041 L29.8628264,10.7302041 L29.8628264,19.3570816 L28.306278,19.3570816 L28.306278,18.4164286 C27.6864632,19.129898 27.0956292,19.4758367 26.5276993,19.4758367 C26.0266122,19.4758367 25.6807126,19.2716531 25.5245903,18.8351224 C25.4385828,18.5736735 25.3866979,18.1610816 25.3866979,17.5522857 L25.3866979,10.7302041 L25.3866979,10.7302041 Z M19.5073385,13.5432449 C19.5073385,12.620898 19.6634608,11.9468571 19.9944026,11.5107959 C20.4249075,10.9207755 21.0311668,10.626 21.8071038,10.626 C22.5867804,10.626 23.1925722,10.9207755 23.623077,11.5107959 C23.9493446,11.9463878 24.1054668,12.620898 24.1054668,13.5432449 L24.1054668,16.5642245 C24.1054668,17.4814082 23.9493446,18.161551 23.623077,18.5929184 C23.1925722,19.1815306 22.5867804,19.4758367 21.8071038,19.4758367 C21.0311668,19.4758367 20.4249075,19.1815306 19.9944026,18.5929184 C19.6634608,18.161551 19.5073385,17.4809388 19.5073385,16.5642245 L19.5073385,13.5432449 Z M15.3443894,7.78057143 L16.569996,12.3265918 L17.7474571,7.78057143 L19.4933156,7.78057143 L17.4165153,14.6688367 L17.4165153,19.357551 L15.6907565,19.357551 L15.6907565,14.6688367 C15.5341668,13.8380204 15.1887345,12.620898 14.6348276,11.0062041 C14.2711656,9.93177551 13.8920782,8.85406122 13.5284162,7.78057143 L15.3443894,7.78057143 Z M35.1443403,35.2327143 C34.8320957,36.5934694 33.7238145,37.5979592 32.3892963,37.7476939 C29.2280538,38.1020816 26.0303517,38.1039592 22.8443354,38.1020816 C19.6597213,38.1039592 16.4601495,38.1020816 13.2998419,37.7476939 C11.9653236,37.5979592 10.856575,36.5939388 10.5452653,35.2327143 C10.1007375,33.2946122 10.1007375,31.1781429 10.1007375,29.1823061 C10.1007375,27.1864694 10.1063467,25.0704694 10.5504071,23.131898 C10.8621842,21.7706735 11.969998,20.7661837 13.3045162,20.6169184 C16.4652912,20.2625306 19.6643957,20.2606531 22.8499446,20.2625306 C26.0345586,20.2606531 29.233663,20.2625306 32.394438,20.6169184 C33.7289563,20.7666531 34.8377049,21.7706735 35.1504169,23.131898 C35.5935424,25.0704694 35.5907378,27.1864694 35.5907378,29.1823061 C35.5907378,31.1781429 35.5888681,33.2946122 35.1443403,35.2327143 Z" id="Shape"></path>
                                <path d="M31.3974056,25.8379184 C30.6093153,25.8379184 29.9974469,26.1284694 29.5524516,26.7128571 C29.2257167,27.1446939 29.0766059,27.8121633 29.0766059,28.7241837 L29.0766059,31.7146531 C29.0766059,32.6219796 29.2434791,33.2941429 29.5716163,33.7217551 C30.0161441,34.3047347 30.6298823,34.5962245 31.435735,34.5962245 C32.2401855,34.5962245 32.8716861,34.2906531 33.297984,33.6705918 C33.4849568,33.3964694 33.6064891,33.0862041 33.6579066,32.743551 C33.672397,32.5886531 33.6906269,32.2455306 33.6906269,31.7465714 L33.6906269,31.5217347 L32.119588,31.5217347 C32.119588,32.1413265 32.0994884,32.4853878 32.0859329,32.5694082 C31.9980557,32.9829388 31.7764929,33.1894694 31.3974056,33.1894694 C30.8682726,33.1894694 30.6093153,32.7951837 30.6093153,32.0056735 L30.6093153,30.4914286 L33.6906269,30.4914286 L33.6906269,28.7232449 C33.6906269,27.8112245 33.5368418,27.1437551 33.2138463,26.7119184 C32.7833414,26.1289388 32.1705381,25.8379184 31.3974056,25.8379184 Z M32.150906,29.2043673 L30.6102502,29.2043673 L30.6102502,28.4143878 C30.6102502,27.6248776 30.8687401,27.2301224 31.3833827,27.2301224 C31.8928835,27.2301224 32.150906,27.6253469 32.150906,28.4143878 L32.150906,29.2043673 L32.150906,29.2043673 Z" id="Shape"></path>
                            </g>
                        </g>
                    </g>
                </g>
            </g>
        </g>
    </g>
</svg>